<?xml version="1.0" encoding="utf-8"?>
<!-- Generator: Adobe Illustrator 26.0.3, SVG Export Plug-In . SVG Version: 6.00 Build 0)  -->
<svg version="1.0" id="katman_1" xmlns="http://www.w3.org/2000/svg" xmlns:xlink="http://www.w3.org/1999/xlink" x="0px" y="0px"
	 viewBox="0 0 600 450" style="enable-background:new 0 0 600 450;" xml:space="preserve">
<style type="text/css">
	.st0{fill:#4F5154;}
	.st1{fill:#E9522B;}
</style>
<g id="Group_164194" transform="translate(-5776 73)">
	<g id="Group_164193" transform="translate(0 10)">
		<path id="Path_43" class="st0" d="M6286.4,120.4h-2.1v-0.8h5.3v0.8h-2.1v5.9h-1.1L6286.4,120.4z"/>
		<path id="Path_44" class="st0" d="M6293.4,126.3l-1.9-5.7v5.7h-1.1v-6.8h1.7l1.7,5.5l1.7-5.5h1.7v6.8h-0.8v-5.7l-1.9,5.7
			L6293.4,126.3z"/>
		<path id="Path_45" class="st1" d="M5899.8,102.7c2.2,0,4,1.8,4,4c0,2.2-1.8,4-4,4h-0.2c-2.1-0.1-3.8-1.7-3.8-3.8
			c0-1.1,0.4-2.1,1.1-3C5897.6,103.1,5898.7,102.6,5899.8,102.7 M5899.8,97.6c-5,0.1-9,4.3-8.9,9.3c0.1,4.7,3.8,8.6,8.5,8.9h0.4
			c5,0,9.1-4,9.1-9c0,0,0-0.1,0-0.1c0-5-4-9.1-9-9.1C5899.9,97.6,5899.8,97.6,5899.8,97.6L5899.8,97.6z"/>
		<path id="Path_46" class="st1" d="M5893.6,161.3c5.2-0.1,9.4,4,9.5,9.2s-4,9.4-9.2,9.5c-0.1,0-0.2,0-0.3,0h-10
			c-5.2,0.1-9.4-4-9.5-9.2s4-9.4,9.2-9.5c0.1,0,0.2,0,0.3,0H5893.6 M5893.6,155.1h-10c-8.4,0.1-15.2,7-15.1,15.5
			c0.1,8.3,6.8,14.9,15.1,15.1h10c8.4-0.1,15.2-7,15.1-15.5C5908.6,161.9,5901.9,155.3,5893.6,155.1z"/>
		<path id="Path_47" class="st1" d="M5893.6,125.7c5.2-0.1,9.4,4,9.5,9.2c0.1,5.2-4,9.4-9.2,9.5c-0.1,0-0.2,0-0.3,0h-23.5
			c-5.2,0.1-9.4-4-9.5-9.2c-0.1-5.2,4-9.4,9.2-9.5c0.1,0,0.2,0,0.3,0H5893.6 M5893.6,119.5h-23.5c-8.4,0.1-15.2,7-15.1,15.5
			c0.1,8.3,6.8,14.9,15.1,15.1h23.5c8.4-0.1,15.2-7,15.1-15.5C5908.6,126.3,5901.9,119.6,5893.6,119.5z"/>
		<path id="Path_48" class="st0" d="M5989,185.9v-66.6h37.5v6.6h-30.8V149h27.6v6.4h-27.6v24h30.8v6.6L5989,185.9z"/>
		<path id="Path_49" class="st0" d="M6099.1,185.9v-66.6h37.5v6.6h-30.8V149h27.6v6.4h-27.6v24h30.8v6.6L6099.1,185.9z"/>
		<path id="Path_50" class="st0" d="M6211.1,185.9v-27.6l-22.5-39h7.6l18.2,32l18.2-32h7.4l-22.3,39v27.6H6211.1z"/>
		<path id="Path_51" class="st0" d="M6085.6,185.9v-66.6h-6.6v54.3l-32.9-54.3h-6.8v66.6h6.8v-54.3l32.9,54.3H6085.6z"/>
		<path id="Path_52" class="st0" d="M5954,157.3h15.9v5.3c0,12.9-8.3,17.6-15.9,17.6s-15.9-4.7-15.9-17.6v-19.9
			c0-12.9,8.3-17.6,15.9-17.6c8-0.3,14.9,5.6,15.7,13.6h6.6c-0.8-11.6-10.6-20.6-22.3-20.2c-13.6,0-22.5,9.8-22.5,24.2v19.9
			c0,14.4,9.1,24.2,22.5,24.2c13.6,0,22.5-9.8,22.5-24.2v-11.9H5954V157.3z"/>
		<path id="Path_53" class="st0" d="M6151.5,165.7c0,7.9,6.4,14.4,14.3,14.4c0.2,0,0.3,0,0.5,0c8.5,0,12.9-4,12.9-11.7
			c0.1-5.4-3.8-10.1-9.1-11l-11.2-3c-8.1-2-13.6-9.5-13.2-17.8c0-10.8,7.6-18,19.1-18c13.2,0,18.9,9.1,20.2,18.2h-6.6
			c-1.5-7.6-6.4-11.7-13.4-11.7c-7.6,0-12.5,4.5-12.5,11.5c-0.3,5.4,3.4,10.2,8.7,11.5l11.7,3.2c8,2,13.6,9.3,13.4,17.6
			c0,11.2-7.6,18.2-19.7,18.2c-15.1,0-21.2-11.5-21.4-21L6151.5,165.7z"/>
		<path id="Path_54" class="st0" d="M6249.8,165.7c0,7.9,6.4,14.4,14.3,14.4c0.2,0,0.3,0,0.5,0c8.5,0,12.9-4,12.9-11.7
			c0.1-5.4-3.8-10.1-9.1-11l-11.2-3c-8.1-2-13.6-9.5-13.2-17.8c0-10.8,7.6-18,19.1-18c13.2,0,18.9,9.1,20.2,18.2h-6.6
			c-1.5-7.6-6.4-11.7-13.4-11.7c-7.6,0-12.5,4.5-12.5,11.5c-0.3,5.4,3.4,10.2,8.7,11.5l11.7,3.2c8,2,13.6,9.3,13.4,17.6
			c0,11.2-7.6,18.2-19.7,18.2c-15.1,0-21.2-11.5-21.4-21L6249.8,165.7z"/>
	</g>
</g>
</svg>
